<svg xmlns="http://www.w3.org/2000/svg" viewBox="0 9.470000267028809 33.7400016784668 36.37999725341797"
     data-asc="0.9052734375" width="33.7400016784668" height="36.37999725341797">
    <defs/>
    <g fill="currentColor">
        <g transform="translate(0, 0)">
            <path d="M0 14.53L0 9.47L4.39 9.47L4.39 14.53L0 14.53M0 45.26L0 19.34L4.39 19.34L4.39 45.26L0 45.26ZM9.45 32.30Q9.45 25.10 13.45 21.63Q16.80 18.75 21.61 18.75Q26.95 18.75 30.35 22.25Q33.74 25.76 33.74 31.93Q33.74 36.94 32.24 39.81Q30.74 42.68 27.87 44.26Q25 45.85 21.61 45.85Q16.16 45.85 12.81 42.36Q9.45 38.87 9.45 32.30M13.96 32.30Q13.96 37.28 16.14 39.76Q18.31 42.24 21.61 42.24Q24.88 42.24 27.05 39.75Q29.22 37.26 29.22 32.15Q29.22 27.34 27.04 24.87Q24.85 22.39 21.61 22.39Q18.31 22.39 16.14 24.85Q13.96 27.32 13.96 32.30Z"/>
        </g>
    </g>
</svg>